<svg width="55" height="55" viewBox="0 0 55 55" fill="none" xmlns="http://www.w3.org/2000/svg">
<g id="bx:bxs-phone-incoming">
<path id="Vector" d="M36.1923 15.5673L29.7917 9.1667V25.2084H45.8333L39.4327 18.8077L49.7452 8.49524L46.5048 5.25482L36.1923 15.5673Z" fill="black"/>
<path id="Vector_2" d="M37.7594 30.5072C37.319 30.107 36.7404 29.8935 36.1456 29.9119C35.5508 29.9303 34.9865 30.1791 34.5717 30.6058L29.09 36.2455C27.77 35.9935 25.1163 35.1662 22.3846 32.4414C19.6529 29.7074 18.8256 27.0468 18.5804 25.736L24.2156 20.2497C24.6428 19.8352 24.892 19.2708 24.9104 18.6758C24.9288 18.0809 24.715 17.5021 24.3142 17.062L15.8465 7.75096C15.4455 7.30949 14.8883 7.0417 14.2931 7.00447C13.6979 6.96725 13.1116 7.16351 12.6588 7.55159L7.68585 11.8164C7.28899 12.2138 7.05171 12.743 7.01898 13.3037C6.9846 13.8766 6.32919 27.4478 16.8525 37.9758C26.0329 47.1539 37.5348 47.8253 40.6996 47.8253C41.1648 47.8253 41.4467 47.8116 41.5223 47.807C42.0828 47.7761 42.6119 47.5385 43.0073 47.1401L47.2721 42.1649C47.6599 41.7121 47.8562 41.1262 47.8194 40.5311C47.7826 39.9361 47.5156 39.3788 47.075 38.9772L37.7594 30.5072Z" fill="black"/>
</g>
</svg>
